<?xml version="1.0" encoding="utf-8"?>
<!-- Generator: Adobe Illustrator 16.0.0, SVG Export Plug-In . SVG Version: 6.00 Build 0)  -->
<!DOCTYPE svg PUBLIC "-//W3C//DTD SVG 1.1//EN" "http://www.w3.org/Graphics/SVG/1.1/DTD/svg11.dtd">
<svg version="1.1" id="Layer_1" xmlns="http://www.w3.org/2000/svg" xmlns:xlink="http://www.w3.org/1999/xlink" x="0px" y="0px"
	 width="88.568px" height="81.667px" viewBox="0 0 88.568 81.667" enable-background="new 0 0 88.568 81.667" xml:space="preserve">
<image overflow="visible" enable-background="new    " width="400" height="600" xlink:href="45C3096945900D4C.png"  transform="matrix(0.2227 0 0 0.2227 -495.4954 450.2983)">
</image>
<image overflow="visible" enable-background="new    " width="400" height="600" xlink:href="45C3096945900D4C.png"  transform="matrix(0.2227 0 0 0.2227 -300.8918 450.2983)">
</image>
<image overflow="visible" enable-background="new    " width="400" height="600" xlink:href="45C3096945900D4C.png"  transform="matrix(0.2227 0 0 0.2227 -400.1819 450.2983)">
</image>
<image overflow="visible" enable-background="new    " width="400" height="600" xlink:href="45C3096945900D54.png"  transform="matrix(0.2227 0 0 0.2227 -106.8264 450.2983)">
</image>
<image overflow="visible" enable-background="new    " width="400" height="600" xlink:href="45C3096945900D54.png"  transform="matrix(0.2227 0 0 0.2227 -202.4954 450.2983)">
</image>
<rect x="-895.534" y="72.75" fill="#F0DA36" width="24.146" height="117.5"/>
<rect x="-871.438" y="72.75" fill="#6AC070" width="24.146" height="117.5"/>
<rect x="-847.341" y="72.75" fill="#365DAA" width="24.146" height="117.5"/>
<rect x="-823.328" y="72.75" fill="#ED2F89" width="24.147" height="117.5"/>
<rect x="-919.682" y="72.75" fill="#C52228" width="24.146" height="117.5"/>
<path fill="none" stroke="#FFFFFF" stroke-width="2" stroke-miterlimit="10" d="M-799.181,185.998c0,2.35-1.904,4.252-4.252,4.252
	H-915.43c-2.35,0-4.252-1.902-4.252-4.252V77.001c0-2.348,1.902-4.252,4.252-4.252h111.997c2.348,0,4.252,1.904,4.252,4.252V185.998
	L-799.181,185.998z"/>
<g id="OPbao7.tif">
	<g>
		<path fill="#FFFFFF" d="M-863.431,102.5c2.566,1.65,2.538,1.188,1.508,6.071c-0.674,3.196-2.126,6.224-3.153,9.351
			c-0.48,1.469-0.796,2.994-1.154,4.5c-0.103,0.42-0.152,0.867-0.133,1.299c0.159,3.398,1.172,4.339,5.173,3.656
			c4.393-0.75,8.647-0.648,12.99-0.108c3.059,0.38,5.389,2.012,7.562,4c0.25,0.229,0.445,0.535,0.727,0.713
			c3.264,2.067,4.678,5.31,5.672,8.833c0.224,0.789,0.486,1.586,0.87,2.305c0.502,0.938,0.118,1.146-0.745,1.324
			c-4.008,0.822-7.985,0.148-11.994-0.115c-0.015,0.039-0.098,0.157-0.067,0.202c1.759,2.72-16.611,0.566-17.839-0.112
			c-2.705-1.496-5.349-3.123-7.923-4.836c-1.607-1.07-2.605-2.646-3.054-4.6c-0.946-4.135-0.093-8.07,1.145-11.98
			c0.071-0.227,0.218-0.433,0.346-0.638c2.211-3.526,4.461-7.028,6.614-10.59c0.515-0.851,0.84-1.872,0.998-2.854
			c0.068-0.432-0.394-1.119-0.811-1.408c-0.438-0.305-1.12-0.234-1.677-0.393c-0.974-0.275-1.935-0.602-2.898-0.906
			c0.006-0.147,0.011-0.297,0.017-0.444c1.832-1.091,3.665-2.179,5.497-3.269C-864.987,102.5-864.209,102.5-863.431,102.5z"/>
	</g>
</g>
<rect x="-774.682" y="95.397" fill="#F0DA36" width="117.5" height="24.146"/>
<rect x="-774.682" y="119.494" fill="#6AC070" width="117.5" height="24.146"/>
<rect x="-774.682" y="143.589" fill="#365DAA" width="117.5" height="24.146"/>
<rect x="-774.682" y="167.603" fill="#ED2F89" width="117.5" height="24.146"/>
<rect x="-774.682" y="71.25" fill="#C52228" width="117.5" height="24.147"/>
<path fill="none" stroke="#FFFFFF" stroke-width="2" stroke-miterlimit="10" d="M-655.681,185.998c0,2.35-1.904,4.252-4.252,4.252
	H-771.93c-2.349,0-4.252-1.902-4.252-4.252V77.001c0-2.348,1.903-4.252,4.252-4.252h111.997c2.348,0,4.252,1.904,4.252,4.252
	V185.998L-655.681,185.998z"/>
<g id="OPbao7.tif_1_">
	<g>
		<path fill="#FFFFFF" d="M-719.931,102.5c2.566,1.65,2.538,1.188,1.508,6.071c-0.674,3.196-2.126,6.224-3.153,9.351
			c-0.48,1.469-0.796,2.994-1.154,4.5c-0.103,0.42-0.152,0.867-0.133,1.299c0.159,3.398,1.173,4.339,5.174,3.656
			c4.392-0.75,8.646-0.648,12.989-0.108c3.059,0.38,5.389,2.012,7.562,4c0.25,0.229,0.445,0.535,0.727,0.713
			c3.264,2.067,4.678,5.31,5.672,8.833c0.224,0.789,0.486,1.586,0.87,2.305c0.502,0.938,0.118,1.146-0.745,1.324
			c-4.008,0.822-7.985,0.148-11.994-0.115c-0.015,0.039-0.098,0.157-0.067,0.202c1.759,2.72-16.611,0.566-17.839-0.112
			c-2.705-1.496-5.349-3.123-7.922-4.836c-1.608-1.07-2.606-2.646-3.055-4.6c-0.945-4.135-0.093-8.07,1.145-11.98
			c0.071-0.227,0.218-0.433,0.346-0.638c2.211-3.526,4.461-7.028,6.614-10.59c0.515-0.851,0.84-1.872,0.998-2.854
			c0.068-0.432-0.394-1.119-0.811-1.408c-0.438-0.305-1.12-0.234-1.677-0.393c-0.974-0.275-1.934-0.602-2.898-0.906
			c0.007-0.147,0.011-0.297,0.017-0.444c1.832-1.091,3.665-2.179,5.497-3.269C-721.486,102.5-720.709,102.5-719.931,102.5z"/>
	</g>
</g>
<g id="homepage__x26__gif.psd">
	<g>
		<defs>
			<rect id="SVGID_1_" x="-193.722" y="138.089" width="245.699" height="245.699"/>
		</defs>
		<clipPath id="SVGID_2_">
			<use xlink:href="#SVGID_1_"  overflow="visible"/>
		</clipPath>
		<g transform="matrix(1 0 0 1 0 0)" clip-path="url(#SVGID_2_)">
			
				<image overflow="visible" enable-background="new    " width="601" height="604" id="Layer_0_2_" xlink:href="45C3096945900D55.png"  transform="matrix(0.4088 0 0 0.4068 -193.7209 138.0913)">
			</image>
		</g>
	</g>
	<g>
		<defs>
			<rect id="SVGID_3_" x="-193.722" y="138.089" width="245.699" height="245.699"/>
		</defs>
		<clipPath id="SVGID_4_">
			<use xlink:href="#SVGID_3_"  overflow="visible"/>
		</clipPath>
		<g transform="matrix(1 0 0 1 7.629395e-06 -1.525879e-05)" clip-path="url(#SVGID_4_)">
			
				<image overflow="visible" enable-background="new    " width="254" height="249" id="logo_1_" xlink:href="45C3096945900D5B.png"  transform="matrix(0.4047 0 0 0.4062 -101.5852 161.021)">
			</image>
		</g>
	</g>
</g>
<path fill="#313131" d="M-551.94,98.189c0,0-5.001-18.834,9.333-30.166C-542.607,68.023-537.44,83.689-551.94,98.189z"/>
<path fill="#838383" d="M-540.54,99.898c0,0-10.716-16.275-0.716-31.568C-541.256,68.33-531.387,81.548-540.54,99.898z"/>
<g id="OPbao7.tif_3_">
	<g>
		<path fill="#FFFFFF" d="M-604.146,75.46c3.79,2.437,3.746,1.752,2.226,8.961c-0.994,4.718-3.138,9.186-4.653,13.802
			c-0.711,2.169-1.175,4.421-1.706,6.646c-0.15,0.617-0.226,1.279-0.191,1.916c0.233,5.016,1.728,6.405,7.633,5.397
			c6.482-1.108,12.768-0.958,19.175-0.159c4.515,0.562,7.953,2.971,11.162,5.905c0.369,0.338,0.656,0.79,1.073,1.053
			c4.816,3.054,6.902,7.834,8.372,13.039c0.329,1.164,0.717,2.34,1.284,3.401c0.742,1.384,0.175,1.693-1.104,1.957
			c-5.912,1.211-11.787,0.219-17.702-0.172c-0.021,0.057-0.143,0.23-0.103,0.299c2.597,4.015-24.521,0.834-26.333-0.166
			c-3.991-2.211-7.893-4.61-11.692-7.139c-2.375-1.582-3.848-3.91-4.505-6.793c-1.4-6.103-0.141-11.912,1.685-17.683
			c0.106-0.334,0.322-0.64,0.513-0.942c3.264-5.203,6.584-10.375,9.765-15.632c0.759-1.256,1.237-2.764,1.475-4.216
			c0.1-0.635-0.582-1.65-1.198-2.077c-0.644-0.448-1.65-0.345-2.474-0.578c-1.438-0.409-2.854-0.889-4.278-1.338
			c0.008-0.219,0.014-0.438,0.021-0.657c2.705-1.607,5.413-3.217,8.117-4.824C-606.44,75.46-605.293,75.46-604.146,75.46z"/>
	</g>
</g>
<path fill="#434343" d="M-529.524,97.093c0,0-15.345-12.012-10.739-29.693C-540.264,67.399-526.696,76.783-529.524,97.093z"/>
<path fill="#636363" d="M-516.846,91.16c0,0-18.944-4.562-22.093-22.562C-538.938,68.599-522.7,71.505-516.846,91.16z"/>
<path fill="#5E5E5E" d="M-511.449,79.428c0,0-19.106,3.825-29.529-11.183C-540.979,68.246-525.023,64.058-511.449,79.428z"/>
<path fill="#1F1F1F" d="M-513.418,66.009c0,0-16.407,10.512-31.574,0.322C-544.992,66.332-531.651,56.626-513.418,66.009z"/>
<path fill="#919191" d="M-515.819,53.574c0,0-11.426,15.785-29.27,11.85C-545.088,65.423-536.222,51.512-515.819,53.574z"/>
<path fill="#505050" d="M-523.4,41.895c0,0-2.031,19.38-19.459,24.869C-542.859,66.764-542.113,50.285-523.4,41.895z"/>
<path fill="#323232" d="M-540.044,36.633c0,0,9.733,17.057-3.202,31.744C-543.246,68.376-552.437,54.447-540.044,36.633z"/>
<path fill="#656565" d="M-553.339,37.313c0,0,15.953,11.431,10.483,30.103C-542.855,67.416-557.003,58.595-553.339,37.313z"/>
<path fill="#4E4E4E" d="M-563.663,44.234c0,0,19.199,4.066,21.685,23.364C-541.979,67.599-558.479,65.197-563.663,44.234z"/>
<path fill="#626262" d="M-570.541,54.414c0,0,19.386-3.824,28.725,14.474C-541.817,68.886-558.08,73.266-570.541,54.414z"/>
<path fill="#4D4D4D" d="M-574.253,65.274c0,0,16.587-10.737,32.041,2.794C-542.212,68.068-555.692,78.164-574.253,65.274z"/>
<path fill="#101010" d="M-575.368,78.246c0,0,11.935-15.748,31.074-8.297C-544.294,69.949-553.524,84.037-575.368,78.246z"/>
<g id="jSp32e.tif">
	<g>
		<path fill="#FFFFFF" d="M-259.861,288.367c5.065-9.18,4.401-19.793-2.69-27.062c-7.973-8.171-17.859-10.587-28.786-8.226
			c-10.961,2.367-17.494,10.101-18.383,21.189c-0.359,4.471-0.11,8.988-0.452,13.463c-0.25,3.253-0.776,6.533-1.624,9.682
			c-0.793,2.934-3.274,4.064-6.198,4.082c-2.73,0.012-4.383-1.525-5.393-3.951c-0.537-1.285-1.077-2.604-1.833-3.766
			c-1.164-1.787-2.967-2.326-4.763-1.578c-1.837,0.768-2.814,2.207-2.425,4.174c0.34,1.707-0.438,2.795-1.434,3.938
			c-0.636,0.729-1.153,1.562-1.725,2.352c0.155,0.184,0.312,0.367,0.471,0.549c0.729-0.266,1.513-0.437,2.179-0.814
			c1.097-0.622,2.135-1.35,3.161-2.082c1.253-0.895,2.016-0.912,2.933,0.662c2.316,3.969,6.9,5.846,11.387,4.99
			c5.229-1,8.673-4.801,9.521-10.662c0.515-3.537,0.755-7.114,1.346-10.635c0.802-4.801,3.587-6.28,7.928-4.26
			c6.003,2.793,12.259,3.228,18.714,2.381c3.834-0.502,7.332-1.748,10.396-4.166c1.978-1.561,2.931-1.475,4.222,0.697
			c1.027,1.727,1.735,3.655,2.477,5.535C-260.412,285.931-260.206,287.087-259.861,288.367z M-297.958,323.862
			c0.045,0.272,0.088,0.548,0.133,0.821c3.456,0,6.91,0.014,10.366-0.023c0.288-0.004,0.648-0.289,0.847-0.545
			c4.324-5.599,8.679-11.178,12.891-16.861c0.585-0.791,0.772-2.164,0.604-3.176c-1.062-6.41-2.278-12.789-3.435-19.115
			c-4.145,0-8.14,0-12.329,0c0.48,0.879,0.908,1.666,1.34,2.451c2.571,4.662,5.146,9.318,7.711,13.983
			c1.048,1.909,1.195,3.752,0.004,5.749c-1.975,3.307-3.912,6.648-5.602,10.104c-2.031,4.162-4.984,6.404-9.787,5.895
			C-296.096,323.052-297.043,323.606-297.958,323.862z"/>
	</g>
</g>
<path fill="#444444" d="M-572.513,87.576c0,0,8.252-17.953,28.55-14.81C-543.963,72.767-549.934,88.514-572.513,87.576z"/>
<path fill="#414141" d="M-566.319,96.597c0,0,0.407-19.754,20.275-24.965C-546.043,71.632-545.24,88.453-566.319,96.597z"/>
<path fill="#ED2F8D" d="M-314.438,295.898c0,0-9.562,2.648-15.407-4.585C-329.845,291.313-321.898,288.598-314.438,295.898z"/>
<path fill="#EE3352" d="M-312.234,289.548c0,0-7.956,5.924-16.021,1.291C-328.256,290.839-321.829,285.435-312.234,289.548z"/>
<path fill="#3761AD" d="M-315.021,282.794c0,0-4.214,8.979-13.512,8.707C-328.532,291.501-325.42,283.703-315.021,282.794z"/>
<path fill="#283A8F" d="M-321.11,279.542c0,0-0.659,9.896-9.421,13.022C-330.531,292.565-330.467,284.167-321.11,279.542z"/>
<path fill="#7BC57F" d="M-326.929,276.763c0,0,3.008,9.451-4.002,15.566C-330.931,292.33-333.942,284.492-326.929,276.763z"/>
<path fill="#49B357" d="M-334.002,276.333c0,0,7.32,6.694,4.295,15.49C-329.707,291.824-336.228,286.533-334.002,276.333z"/>
<path fill="#EFEB5A" d="M-341.19,281.558c0,0,9.927,1.173,12.025,10.912C-329.164,292.47-337.646,292.019-341.19,281.558z"/>
<path fill="#E8B121" d="M-344.934,287.205c0,0,9.506-3.072,15.495,4.813C-329.438,292.019-337.33,295.143-344.934,287.205z"/>
<path fill="#B92226" d="M-345.224,293.526c0,0,7.472-6.631,16.124-1.812C-329.1,291.716-335.073,297.744-345.224,293.526z"/>
<path fill="#5F0C10" d="M-342.322,300.57c0,0,3.061-9.58,13.513-9.244C-328.81,291.326-330.855,299.65-342.322,300.57z"/>
<path fill="#ED2F8D" d="M-424.106,194.018c0,0-23.653-16.666-18.147-43.233C-442.254,150.783-421.433,163.685-424.106,194.018z"/>
<path fill="#EE3352" d="M-405.702,187.24c0,0-28.078-6.99-32.546-33.752C-438.248,153.488-414.17,157.992-405.702,187.24z"/>
<path fill="#3761AD" d="M-395.623,168.466c0,0-28.051,7.104-44.63-14.373C-440.253,154.093-416.903,146.688-395.623,168.466z"/>
<path fill="#283A8F" d="M-399.547,148.712c0,0-23.544,16.815-46.8,2.84C-446.347,151.552-427.288,136.164-399.547,148.712z"/>
<path fill="#7BC57F" d="M-404.039,130.451c0,0-15.761,24.266-42.518,19.764C-446.557,150.214-434.449,128.921-404.039,130.451z"/>
<path fill="#49B357" d="M-416.154,113.701c0,0-1.562,28.891-26.997,38.336C-443.151,152.037-443.278,127.541-416.154,113.701z"/>
<path fill="#EFEB5A" d="M-441.23,107.142c0,0,15.71,24.566-2.373,47.316C-443.604,154.458-458.275,134.486-441.23,107.142z"/>
<path fill="#E8B121" d="M-460.896,109.144c0,0,24.514,15.757,17.798,43.859C-443.098,153.003-464.739,140.979-460.896,109.144z"/>
<path fill="#B92226" d="M-475.688,120.181c0,0,28.774,4.593,33.903,33.027C-441.784,153.208-466.433,150.88-475.688,120.181z"/>
<path fill="#5F0C10" d="M-486.217,139.759c0,0,27.272-10.816,45.848,13.379C-440.369,153.138-462.933,163.921-486.217,139.759z"/>
<g id="jSp32e.tif_1_">
	<g>
		<path fill="#FFFFFF" d="M-650.538,313.188c7.578-13.729,6.584-29.604-4.021-40.478c-11.925-12.221-26.713-15.832-43.056-12.301
			c-16.394,3.543-26.164,15.107-27.495,31.693c-0.536,6.688-0.163,13.445-0.677,20.135c-0.374,4.866-1.157,9.771-2.429,14.48
			c-1.186,4.387-4.896,6.08-9.27,6.103c-4.087,0.021-6.555-2.28-8.065-5.905c-0.805-1.926-1.609-3.896-2.741-5.633
			c-1.742-2.674-4.438-3.482-7.122-2.359c-2.747,1.147-4.21,3.301-3.626,6.24c0.506,2.555-0.659,4.183-2.145,5.89
			c-0.951,1.092-1.728,2.338-2.58,3.516c0.233,0.274,0.469,0.55,0.703,0.822c1.093-0.396,2.265-0.654,3.262-1.222
			c1.637-0.93,3.19-2.018,4.728-3.111c1.874-1.336,3.016-1.364,4.388,0.988c3.463,5.938,10.316,8.744,17.025,7.463
			c7.822-1.493,12.974-7.176,14.243-15.944c0.768-5.289,1.129-10.64,2.011-15.905c1.2-7.18,5.363-9.394,11.857-6.371
			c8.979,4.178,18.334,4.826,27.988,3.562c5.734-0.751,10.965-2.615,15.549-6.229c2.96-2.334,4.383-2.205,6.314,1.043
			c1.537,2.582,2.597,5.465,3.704,8.279C-651.36,309.544-651.055,311.275-650.538,313.188z M-707.517,366.274
			c0.065,0.41,0.131,0.819,0.197,1.229c5.168,0,10.337,0.021,15.505-0.037c0.43-0.004,0.971-0.432,1.266-0.812
			c6.47-8.375,12.979-16.719,19.278-25.221c0.876-1.183,1.155-3.235,0.903-4.752c-1.592-9.582-3.41-19.126-5.138-28.589
			c-6.197,0-12.173,0-18.439,0c0.719,1.314,1.358,2.492,2.006,3.666c3.844,6.973,7.696,13.938,11.53,20.916
			c1.568,2.854,1.788,5.613,0.006,8.601c-2.952,4.942-5.851,9.942-8.375,15.113c-3.04,6.223-7.456,9.575-14.642,8.812
			C-704.731,365.063-706.147,365.894-707.517,366.274z"/>
	</g>
</g>
<polygon fill="#FFFFFF" points="-456.924,266.296 -442.324,327.848 -456.924,322.187 "/>
<polygon fill="#FFFFFF" points="-442.324,263.189 -456.924,266.296 -442.324,327.848 "/>
<polygon fill="#C4C4C3" points="-411.336,265.274 -411.336,323.526 -442.324,327.848 -442.324,263.189 "/>
<ellipse fill="#212123" cx="-425.054" cy="308.041" rx="10.673" ry="12.479"/>
<ellipse cx="-425.054" cy="308.041" rx="9.393" ry="10.983"/>
<path fill="#FFFFFF" d="M-420.394,307.858c0,2.995-2.079,5.425-4.642,5.425s-4.642-2.43-4.642-5.425
	c0-2.999,2.078-5.427,4.642-5.427C-422.473,302.432-420.394,304.859-420.394,307.858z"/>
<ellipse fill="#212123" cx="-426.054" cy="280.243" rx="7.021" ry="8.21"/>
<ellipse cx="-426.054" cy="280.243" rx="6.18" ry="7.227"/>
<ellipse fill="#FFFFFF" cx="-426.042" cy="280.122" rx="3.054" ry="3.569"/>
<polygon fill="#FFFFFF" points="-518.044,286.169 -509.552,321.971 -518.044,318.678 "/>
<polygon fill="#FFFFFF" points="-509.552,284.361 -518.044,286.169 -509.552,321.971 "/>
<polygon fill="#C4C4C3" points="-491.527,285.574 -491.527,319.457 -509.552,321.971 -509.552,284.361 "/>
<ellipse fill="#212123" cx="-499.506" cy="310.45" rx="6.208" ry="7.259"/>
<ellipse cx="-499.506" cy="310.45" rx="5.463" ry="6.389"/>
<ellipse fill="#FFFFFF" cx="-499.495" cy="310.344" rx="2.699" ry="3.154"/>
<ellipse fill="#212123" cx="-500.088" cy="294.281" rx="4.085" ry="4.775"/>
<ellipse cx="-500.088" cy="294.281" rx="3.595" ry="4.203"/>
<ellipse fill="#FFFFFF" cx="-500.081" cy="294.21" rx="1.776" ry="2.076"/>
<g id="fnKj04.tif">
	
		<image overflow="visible" enable-background="new    " width="452" height="473" id="Layer_0_1_" xlink:href="45C3096945900D5C.png"  transform="matrix(0.4159 0 0 0.4151 -774.6809 450.2983)">
	</image>
</g>
<g>
	<path fill="#FFFFFF" d="M-336.089,315.154h-6.475v2.598h5.942v2.125h-5.942v3.146h6.772v2.199h-9.271v-12.235h8.974V315.154z"/>
	<path fill="#FFFFFF" d="M-334.702,319.362h4.632v2.241h-4.632V319.362z"/>
	<path fill="#FFFFFF" d="M-320.021,312.987h3.679v12.235h-2.382v-8.275c0-0.238,0.003-0.572,0.009-1.001
		c0.005-0.429,0.008-0.759,0.008-0.991l-2.317,10.269h-2.485l-2.302-10.269c0,0.232,0.003,0.562,0.008,0.991
		c0.006,0.429,0.009,0.763,0.009,1.001v8.275h-2.382v-12.235h3.72l2.229,9.62L-320.021,312.987z"/>
	<path fill="#FFFFFF" d="M-313.976,312.987h2.598v7.515c0,0.842,0.101,1.455,0.298,1.842c0.311,0.686,0.981,1.027,2.02,1.027
		c1.03,0,1.701-0.343,2.01-1.027c0.198-0.387,0.298-1,0.298-1.842v-7.515h2.6v7.521c0,1.302-0.202,2.313-0.605,3.039
		c-0.751,1.328-2.185,1.992-4.301,1.992s-3.554-0.664-4.311-1.992c-0.402-0.726-0.604-1.737-0.604-3.039v-7.521H-313.976z"/>
</g>
<g id="jSp32e.tif_2_">
	<g>
		<path fill="#FFFFFF" d="M-178.714,22.063c5.066-9.18,4.402-19.794-2.689-27.062c-7.974-8.171-17.859-10.586-28.786-8.225
			c-10.961,2.367-17.494,10.1-18.384,21.189c-0.358,4.471-0.109,8.989-0.451,13.463c-0.25,3.253-0.776,6.533-1.624,9.682
			c-0.793,2.933-3.275,4.064-6.198,4.081c-2.731,0.013-4.383-1.525-5.394-3.95c-0.536-1.286-1.076-2.604-1.833-3.766
			c-1.163-1.788-2.967-2.327-4.763-1.578c-1.837,0.767-2.813,2.207-2.424,4.174c0.339,1.707-0.439,2.795-1.434,3.937
			c-0.637,0.729-1.153,1.563-1.726,2.351c0.156,0.184,0.313,0.367,0.471,0.55c0.729-0.266,1.514-0.437,2.18-0.815
			c1.096-0.622,2.135-1.35,3.161-2.082c1.253-0.894,2.016-0.912,2.933,0.662c2.316,3.969,6.9,5.846,11.386,4.99
			c5.229-1,8.673-4.8,9.522-10.662c0.514-3.537,0.755-7.114,1.345-10.635c0.802-4.8,3.587-6.28,7.928-4.26
			c6.003,2.793,12.26,3.228,18.715,2.381c3.834-0.501,7.331-1.747,10.396-4.165c1.977-1.561,2.93-1.475,4.221,0.697
			c1.028,1.727,1.736,3.655,2.478,5.535C-179.265,19.627-179.059,20.784-178.714,22.063z M-216.811,57.559
			c0.045,0.272,0.088,0.548,0.133,0.821c3.456,0,6.91,0.014,10.366-0.023c0.288-0.004,0.647-0.289,0.846-0.545
			c4.325-5.6,8.679-11.178,12.891-16.861c0.585-0.792,0.773-2.165,0.604-3.177c-1.063-6.409-2.279-12.789-3.436-19.115
			c-4.144,0-8.14,0-12.328,0c0.479,0.879,0.907,1.666,1.34,2.451c2.57,4.662,5.146,9.319,7.711,13.984
			c1.048,1.909,1.194,3.752,0.004,5.749c-1.976,3.306-3.912,6.649-5.603,10.104c-2.03,4.162-4.983,6.404-9.786,5.895
			C-214.948,56.748-215.896,57.303-216.811,57.559z"/>
	</g>
</g>
<path fill="#ED2F8D" d="M-232.759,28.596c0,0-9.561,2.648-15.407-4.585C-248.166,24.011-240.22,21.295-232.759,28.596z"/>
<path fill="#EE3352" d="M-230.556,22.245c0,0-7.956,5.924-16.021,1.291C-246.577,23.536-240.15,18.132-230.556,22.245z"/>
<path fill="#3761AD" d="M-233.343,15.491c0,0-4.214,8.98-13.511,8.708C-246.854,24.199-243.741,16.399-233.343,15.491z"/>
<path fill="#283A8F" d="M-239.432,12.239c0,0-0.659,9.896-9.42,13.023C-248.852,25.263-248.788,16.864-239.432,12.239z"/>
<path fill="#7BC57F" d="M-245.25,9.46c0,0,3.008,9.452-4.002,15.566C-249.252,25.026-252.264,17.189-245.25,9.46z"/>
<path fill="#49B357" d="M-252.323,9.031c0,0,7.32,6.694,4.296,15.489C-248.028,24.521-254.549,19.23-252.323,9.031z"/>
<path fill="#EFEB5A" d="M-259.512,14.255c0,0,9.927,1.173,12.026,10.912C-247.485,25.167-255.968,24.716-259.512,14.255z"/>
<path fill="#E8B121" d="M-263.255,19.901c0,0,9.506-3.072,15.495,4.814C-247.76,24.716-255.651,27.84-263.255,19.901z"/>
<path fill="#B92226" d="M-263.545,26.224c0,0,7.472-6.631,16.124-1.811C-247.421,24.413-253.394,30.441-263.545,26.224z"/>
<path fill="#5F0C10" d="M-260.643,33.268c0,0,3.06-9.58,13.512-9.245C-247.131,24.022-249.177,32.348-260.643,33.268z"/>
<g>
	<path fill="#FFFFFF" d="M-435.606-26.414h-7.688v3.084h7.058v2.523h-7.058v3.736h8.043v2.611h-11.011v-14.528h10.655
		L-435.606-26.414L-435.606-26.414z"/>
	<path fill="#FFFFFF" d="M-433.96-21.417h5.499v2.661h-5.499V-21.417z"/>
	<path fill="#FFFFFF" d="M-416.526-28.987h4.367v14.528h-2.827v-9.826c0-0.283,0.004-0.68,0.011-1.188
		c0.006-0.509,0.009-0.901,0.009-1.177l-2.753,12.192h-2.951l-2.732-12.192c0,0.276,0.004,0.668,0.01,1.177
		c0.007,0.509,0.011,0.906,0.011,1.188v9.826h-2.828v-14.528h4.417l2.646,11.423L-416.526-28.987z"/>
	<path fill="#FFFFFF" d="M-409.349-28.987h3.085v8.923c0,0.999,0.118,1.727,0.354,2.186c0.367,0.814,1.165,1.221,2.396,1.221
		c1.225,0,2.021-0.407,2.387-1.221c0.235-0.459,0.354-1.188,0.354-2.186v-8.923h3.086v8.93c0,1.544-0.24,2.747-0.72,3.607
		c-0.892,1.577-2.594,2.366-5.106,2.366s-4.219-0.789-5.117-2.366c-0.479-0.86-0.718-2.063-0.718-3.607L-409.349-28.987
		L-409.349-28.987z"/>
</g>
<rect x="-274.6" y="62.833" fill="none" width="102.667" height="37.668"/>
<text transform="matrix(1 0 0 1 -274.5999 68.6733)" fill="#E8E8E8" font-family="'Raleway-Medium'" font-size="8">The emotion based  </text>
<text transform="matrix(1 0 0 1 -274.5999 78.2729)" fill="#E8E8E8" font-family="'Raleway-Medium'" font-size="8">music app</text>
<rect x="-275.889" y="44.686" fill="none" width="51.695" height="19.394"/>
<text transform="matrix(1 0 0 1 -275.8889 58.5562)" fill="#FFFFFF" font-family="'Raleway-ExtraBold'" font-size="19">E-MU</text>
<g id="jSp32e.tif_3_">
	<g>
		<path fill="#FFFFFF" d="M-49.221,18.984c3.543-6.419,3.078-13.842-1.882-18.924c-5.575-5.714-12.489-7.403-20.131-5.752
			c-7.665,1.656-12.233,7.063-12.855,14.818c-0.251,3.126-0.077,6.286-0.314,9.415c-0.177,2.274-0.544,4.568-1.138,6.771
			c-0.554,2.051-2.29,2.842-4.334,2.854c-1.91,0.009-3.064-1.066-3.771-2.762c-0.375-0.899-0.753-1.821-1.281-2.633
			c-0.814-1.25-2.075-1.627-3.331-1.104c-1.284,0.536-1.968,1.543-1.695,2.918c0.237,1.194-0.307,1.955-1.002,2.753
			c-0.443,0.51-0.807,1.093-1.206,1.644c0.109,0.128,0.22,0.257,0.329,0.384c0.51-0.186,1.059-0.305,1.523-0.57
			c0.767-0.435,1.493-0.944,2.211-1.456c0.876-0.625,1.409-0.638,2.051,0.463c1.62,2.775,4.825,4.088,7.962,3.49
			c3.657-0.699,6.065-3.357,6.659-7.457c0.359-2.473,0.528-4.975,0.94-7.437c0.561-3.356,2.509-4.392,5.544-2.979
			c4.197,1.953,8.572,2.257,13.087,1.665c2.682-0.35,5.127-1.222,7.271-2.913c1.382-1.091,2.049-1.031,2.952,0.488
			c0.719,1.208,1.214,2.556,1.731,3.871C-49.606,17.28-49.462,18.089-49.221,18.984z M-75.863,43.806
			c0.031,0.191,0.062,0.383,0.094,0.574c2.416,0,4.832,0.01,7.249-0.016c0.201-0.004,0.453-0.203,0.591-0.382
			c3.025-3.916,6.069-7.817,9.015-11.792c0.409-0.554,0.541-1.514,0.423-2.222c-0.743-4.482-1.595-8.943-2.401-13.368
			c-2.897,0-5.692,0-8.622,0c0.336,0.615,0.636,1.165,0.938,1.714c1.799,3.26,3.6,6.517,5.393,9.779
			c0.732,1.335,0.836,2.624,0.003,4.021c-1.381,2.312-2.735,4.65-3.917,7.066c-1.421,2.91-3.485,4.479-6.844,4.121
			C-74.561,43.24-75.223,43.626-75.863,43.806z"/>
	</g>
</g>
<path fill="#ED2F8D" d="M-87.016,25.552c0,0-6.687,1.852-10.774-3.207C-97.79,22.346-92.233,20.446-87.016,25.552z"/>
<path fill="#EE3352" d="M-85.475,21.111c0,0-5.564,4.143-11.204,0.903C-96.679,22.014-92.185,18.234-85.475,21.111z"/>
<path fill="#3761AD" d="M-87.424,16.388c0,0-2.947,6.28-9.448,6.09C-96.872,22.478-94.695,17.023-87.424,16.388z"/>
<path fill="#283A8F" d="M-91.682,14.114c0,0-0.461,6.92-6.588,9.107C-98.27,23.221-98.226,17.348-91.682,14.114z"/>
<path fill="#7BC57F" d="M-95.751,12.17c0,0,2.104,6.61-2.799,10.886C-98.55,23.056-100.656,17.576-95.751,12.17z"/>
<path fill="#49B357" d="M-100.697,11.87c0,0,5.118,4.682,3.004,10.832C-97.693,22.702-102.254,19.003-100.697,11.87z"/>
<path fill="#EFEB5A" d="M-105.725,15.523c0,0,6.941,0.82,8.41,7.631C-97.314,23.154-103.246,22.839-105.725,15.523z"/>
<path fill="#E8B121" d="M-108.342,19.472c0,0,6.647-2.148,10.836,3.367C-97.506,22.839-103.025,25.023-108.342,19.472z"/>
<path fill="#B92226" d="M-108.545,23.893c0,0,5.226-4.637,11.275-1.266C-97.27,22.627-101.446,26.843-108.545,23.893z"/>
<path fill="#5F0C10" d="M-106.516,28.819c0,0,2.14-6.7,9.449-6.465C-97.066,22.354-98.497,28.176-106.516,28.819z"/>
<rect x="-130.6" y="62.833" fill="none" width="102.667" height="37.668"/>
<text transform="matrix(1 0 0 1 -130.5999 68.6733)" fill="#E8E8E8" font-family="'Raleway-Medium'" font-size="8">The emotion based  </text>
<text transform="matrix(1 0 0 1 -130.5999 78.2729)" fill="#E8E8E8" font-family="'Raleway-Medium'" font-size="8">music app</text>
<rect x="-131.889" y="44.686" fill="none" width="51.695" height="19.394"/>
<text transform="matrix(1 0 0 1 -131.8889 58.5562)" fill="#FFFFFF" font-family="'Raleway-ExtraBold'" font-size="19">E-MU</text>
<g id="jSp32e.tif_4_">
	<g>
		<path fill="#FFFFFF" d="M82.668,27.984c3.543-6.419,3.078-13.842-1.882-18.924c-5.575-5.714-12.489-7.403-20.131-5.752
			C52.99,4.963,48.422,10.371,47.8,18.126c-0.251,3.126-0.076,6.286-0.314,9.415c-0.176,2.274-0.543,4.568-1.137,6.771
			c-0.555,2.051-2.29,2.842-4.334,2.854c-1.91,0.009-3.065-1.066-3.771-2.762c-0.375-0.899-0.753-1.821-1.281-2.633
			c-0.813-1.25-2.074-1.627-3.331-1.104c-1.283,0.536-1.968,1.543-1.694,2.918c0.236,1.194-0.308,1.955-1.002,2.753
			c-0.444,0.51-0.808,1.093-1.206,1.644c0.108,0.128,0.219,0.257,0.329,0.384c0.51-0.186,1.058-0.305,1.522-0.57
			c0.768-0.435,1.493-0.944,2.211-1.456c0.876-0.625,1.409-0.638,2.051,0.463c1.62,2.775,4.825,4.088,7.963,3.49
			c3.656-0.699,6.064-3.357,6.658-7.457c0.359-2.473,0.528-4.975,0.94-7.437c0.561-3.356,2.509-4.392,5.544-2.979
			c4.198,1.953,8.573,2.257,13.087,1.665c2.682-0.35,5.127-1.222,7.271-2.913c1.382-1.091,2.049-1.031,2.951,0.488
			c0.72,1.208,1.215,2.556,1.731,3.871C82.282,26.28,82.427,27.089,82.668,27.984z M56.025,52.806
			c0.032,0.191,0.062,0.383,0.094,0.574c2.416,0,4.832,0.01,7.249-0.016c0.201-0.004,0.453-0.203,0.591-0.382
			c3.025-3.916,6.069-7.817,9.016-11.792c0.408-0.554,0.541-1.514,0.423-2.222c-0.744-4.482-1.596-8.943-2.402-13.368
			c-2.896,0-5.691,0-8.622,0c0.336,0.615,0.636,1.165,0.938,1.714c1.798,3.26,3.599,6.517,5.392,9.779
			c0.733,1.335,0.836,2.624,0.003,4.021c-1.381,2.312-2.734,4.65-3.917,7.066c-1.421,2.91-3.484,4.479-6.844,4.121
			C57.328,52.24,56.666,52.626,56.025,52.806z"/>
	</g>
</g>
<path fill="#ED2F8D" d="M44.873,33.552c0,0-6.686,1.852-10.773-3.207C34.099,30.346,39.655,28.446,44.873,33.552z"/>
<path fill="#EE3352" d="M46.414,29.111c0,0-5.563,4.143-11.204,0.903C35.21,30.014,39.704,26.234,46.414,29.111z"/>
<path fill="#3761AD" d="M44.465,24.388c0,0-2.946,6.28-9.447,6.09C35.017,30.478,37.193,25.023,44.465,24.388z"/>
<path fill="#283A8F" d="M40.207,22.114c0,0-0.461,6.92-6.588,9.107C33.619,31.221,33.663,25.348,40.207,22.114z"/>
<path fill="#7BC57F" d="M36.138,20.17c0,0,2.104,6.61-2.8,10.886C33.339,31.056,31.232,25.576,36.138,20.17z"/>
<path fill="#49B357" d="M31.191,19.87c0,0,5.119,4.682,3.004,10.832C34.195,30.702,29.635,27.003,31.191,19.87z"/>
<path fill="#EFEB5A" d="M26.164,23.523c0,0,6.942,0.82,8.41,7.631C34.574,31.154,28.643,30.839,26.164,23.523z"/>
<path fill="#E8B121" d="M23.547,27.472c0,0,6.647-2.148,10.836,3.367C34.383,30.839,28.863,33.023,23.547,27.472z"/>
<path fill="#B92226" d="M23.344,31.893c0,0,5.226-4.637,11.275-1.266C34.619,30.627,30.442,34.843,23.344,31.893z"/>
<path fill="#5F0C10" d="M25.373,36.819c0,0,2.141-6.7,9.449-6.465C34.822,30.354,33.392,36.176,25.373,36.819z"/>
<g>
	<path fill="#E8E8E8" d="M6.065,63.634h-1.96v5.039H3.385v-5.039h-1.96v-0.641h4.642L6.065,63.634L6.065,63.634z"/>
	<path fill="#E8E8E8" d="M10.394,68.673H9.689v-2.336c0-0.432-0.075-0.752-0.226-0.963c-0.148-0.211-0.366-0.316-0.654-0.316
		c-0.14,0-0.277,0.027-0.416,0.084c-0.14,0.057-0.27,0.132-0.39,0.229c-0.12,0.096-0.227,0.211-0.318,0.344
		c-0.095,0.133-0.164,0.279-0.212,0.439v2.52H6.77v-5.84h0.704v2.561c0.165-0.305,0.389-0.542,0.672-0.712
		c0.282-0.17,0.592-0.257,0.928-0.257c0.245,0,0.453,0.046,0.624,0.137c0.171,0.09,0.307,0.213,0.408,0.368
		c0.101,0.155,0.175,0.34,0.22,0.556c0.045,0.217,0.068,0.447,0.068,0.692V68.673z"/>
	<path fill="#E8E8E8" d="M13.337,68.753c-0.313,0-0.603-0.058-0.863-0.172c-0.262-0.115-0.485-0.271-0.673-0.467
		c-0.187-0.197-0.332-0.429-0.436-0.693c-0.104-0.264-0.156-0.541-0.156-0.836c0-0.293,0.053-0.57,0.156-0.832
		c0.104-0.26,0.25-0.49,0.439-0.688c0.188-0.197,0.414-0.354,0.676-0.468s0.55-0.173,0.863-0.173c0.314,0,0.603,0.06,0.86,0.177
		c0.259,0.116,0.479,0.272,0.66,0.468s0.321,0.422,0.42,0.68c0.099,0.26,0.147,0.526,0.147,0.805c0,0.059-0.001,0.111-0.005,0.16
		c-0.003,0.048-0.007,0.084-0.012,0.111h-3.464c0.016,0.209,0.063,0.397,0.145,0.568c0.079,0.17,0.185,0.316,0.312,0.439
		s0.273,0.22,0.436,0.289c0.163,0.068,0.336,0.104,0.518,0.104c0.128,0,0.253-0.018,0.376-0.053c0.122-0.034,0.237-0.08,0.344-0.139
		c0.106-0.06,0.201-0.131,0.284-0.217c0.082-0.085,0.145-0.181,0.188-0.288l0.608,0.169c-0.069,0.154-0.164,0.295-0.284,0.424
		c-0.12,0.127-0.259,0.237-0.416,0.332c-0.156,0.094-0.332,0.166-0.523,0.219C13.745,68.727,13.545,68.753,13.337,68.753z
		 M14.769,66.306c-0.017-0.197-0.065-0.381-0.147-0.549c-0.083-0.168-0.187-0.311-0.312-0.428s-0.271-0.209-0.437-0.275
		s-0.342-0.1-0.527-0.1c-0.187,0-0.362,0.033-0.527,0.1c-0.166,0.066-0.312,0.16-0.438,0.279c-0.125,0.121-0.227,0.264-0.304,0.429
		c-0.077,0.166-0.124,0.347-0.141,0.544H14.769z"/>
	<path fill="#E8E8E8" d="M20.088,68.753c-0.313,0-0.603-0.058-0.863-0.172c-0.262-0.115-0.485-0.271-0.673-0.467
		c-0.187-0.197-0.331-0.429-0.436-0.693c-0.104-0.264-0.156-0.541-0.156-0.836c0-0.293,0.053-0.57,0.156-0.832
		c0.104-0.26,0.25-0.49,0.439-0.688c0.188-0.197,0.415-0.354,0.676-0.468c0.262-0.114,0.55-0.173,0.864-0.173
		c0.313,0,0.602,0.06,0.859,0.177c0.259,0.116,0.479,0.272,0.66,0.468s0.321,0.422,0.42,0.68c0.099,0.26,0.147,0.526,0.147,0.805
		c0,0.059-0.001,0.111-0.004,0.16c-0.004,0.048-0.008,0.084-0.013,0.111h-3.464c0.016,0.209,0.063,0.397,0.145,0.568
		c0.079,0.17,0.185,0.316,0.312,0.439s0.273,0.22,0.436,0.289c0.163,0.068,0.336,0.104,0.518,0.104c0.128,0,0.253-0.018,0.376-0.053
		c0.122-0.034,0.237-0.08,0.344-0.139c0.106-0.06,0.201-0.131,0.284-0.217c0.082-0.085,0.145-0.181,0.188-0.288l0.607,0.169
		c-0.069,0.154-0.164,0.295-0.284,0.424c-0.12,0.127-0.259,0.237-0.416,0.332c-0.156,0.094-0.332,0.166-0.523,0.219
		C20.496,68.727,20.296,68.753,20.088,68.753z M21.52,66.306c-0.017-0.197-0.065-0.381-0.147-0.549
		c-0.083-0.168-0.187-0.311-0.312-0.428s-0.271-0.209-0.437-0.275s-0.342-0.1-0.527-0.1c-0.187,0-0.362,0.033-0.527,0.1
		c-0.166,0.066-0.312,0.16-0.438,0.279c-0.125,0.121-0.227,0.264-0.304,0.429c-0.077,0.166-0.124,0.347-0.141,0.544H21.52z"/>
	<path fill="#E8E8E8" d="M29.264,68.673H28.56v-2.336c0-0.438-0.071-0.76-0.212-0.967c-0.143-0.209-0.352-0.312-0.628-0.312
		c-0.288,0-0.547,0.104-0.772,0.309c-0.227,0.205-0.388,0.471-0.483,0.795v2.512H25.76v-2.336c0-0.447-0.068-0.772-0.208-0.976
		c-0.139-0.202-0.347-0.304-0.623-0.304c-0.283,0-0.539,0.1-0.77,0.3c-0.229,0.2-0.392,0.466-0.487,0.796v2.52h-0.704v-4.176h0.641
		v0.896c0.171-0.311,0.392-0.548,0.664-0.716c0.271-0.169,0.578-0.253,0.92-0.253c0.352,0,0.631,0.096,0.836,0.285
		c0.205,0.188,0.332,0.433,0.38,0.731c0.373-0.677,0.904-1.017,1.592-1.017c0.24,0,0.441,0.045,0.604,0.133
		c0.162,0.088,0.292,0.211,0.388,0.367c0.097,0.158,0.165,0.344,0.208,0.557s0.064,0.445,0.064,0.696V68.673z"/>
	<path fill="#E8E8E8" d="M32.183,68.753c-0.314,0-0.602-0.059-0.859-0.176c-0.259-0.117-0.48-0.273-0.664-0.472
		c-0.185-0.196-0.327-0.427-0.428-0.688c-0.103-0.26-0.152-0.535-0.152-0.824c0-0.293,0.052-0.569,0.156-0.831
		c0.104-0.261,0.248-0.491,0.432-0.688c0.185-0.197,0.405-0.354,0.664-0.472s0.543-0.177,0.853-0.177s0.595,0.06,0.855,0.177
		c0.261,0.116,0.484,0.274,0.668,0.472c0.185,0.198,0.328,0.428,0.433,0.688c0.104,0.262,0.155,0.538,0.155,0.831
		c0,0.289-0.051,0.564-0.151,0.824c-0.102,0.262-0.245,0.492-0.433,0.688c-0.187,0.197-0.408,0.354-0.668,0.472
		S32.498,68.753,32.183,68.753z M30.799,66.602c0,0.219,0.036,0.421,0.108,0.608c0.072,0.187,0.171,0.349,0.296,0.488
		c0.125,0.139,0.271,0.247,0.439,0.327s0.349,0.12,0.54,0.12s0.372-0.04,0.54-0.12s0.315-0.19,0.443-0.332
		c0.128-0.141,0.229-0.307,0.3-0.495c0.072-0.189,0.108-0.394,0.108-0.613c0-0.213-0.036-0.414-0.108-0.604
		c-0.071-0.189-0.172-0.354-0.3-0.496c-0.128-0.141-0.275-0.252-0.443-0.332s-0.349-0.119-0.54-0.119s-0.372,0.041-0.54,0.123
		c-0.168,0.084-0.314,0.195-0.439,0.336c-0.125,0.143-0.224,0.307-0.296,0.496S30.799,66.382,30.799,66.602z"/>
	<path fill="#E8E8E8" d="M37.247,68.466c-0.042,0.021-0.099,0.047-0.168,0.076c-0.069,0.028-0.146,0.059-0.235,0.088
		c-0.088,0.029-0.185,0.053-0.287,0.072c-0.104,0.019-0.213,0.027-0.324,0.027c-0.256,0-0.479-0.07-0.664-0.212
		c-0.188-0.142-0.28-0.36-0.28-0.66V65.05H34.72v-0.553h0.566v-1.392h0.704v1.392h0.938v0.553h-0.938v2.592
		c0.011,0.154,0.062,0.268,0.152,0.336s0.196,0.104,0.319,0.104c0.14,0,0.266-0.022,0.38-0.067c0.114-0.046,0.193-0.081,0.235-0.108
		L37.247,68.466z"/>
	<path fill="#E8E8E8" d="M37.902,63.714v-0.881h0.704v0.881H37.902z M37.902,68.673v-4.176h0.704v4.176H37.902z"/>
	<path fill="#E8E8E8" d="M41.565,68.753c-0.314,0-0.602-0.059-0.859-0.176c-0.259-0.117-0.479-0.273-0.664-0.472
		c-0.185-0.196-0.327-0.427-0.428-0.688c-0.102-0.26-0.152-0.535-0.152-0.824c0-0.293,0.053-0.569,0.156-0.831
		c0.104-0.261,0.248-0.491,0.432-0.688c0.185-0.197,0.405-0.354,0.664-0.472c0.26-0.118,0.543-0.177,0.853-0.177
		s0.595,0.06,0.855,0.177c0.262,0.116,0.484,0.274,0.668,0.472c0.185,0.198,0.328,0.428,0.433,0.688
		c0.104,0.262,0.156,0.538,0.156,0.831c0,0.289-0.052,0.564-0.152,0.824c-0.102,0.262-0.245,0.492-0.433,0.688
		c-0.187,0.197-0.408,0.354-0.668,0.472C42.167,68.695,41.881,68.753,41.565,68.753z M40.182,66.602
		c0,0.219,0.035,0.421,0.107,0.608c0.072,0.187,0.171,0.349,0.296,0.488c0.125,0.139,0.271,0.247,0.439,0.327s0.349,0.12,0.54,0.12
		s0.372-0.04,0.54-0.12s0.315-0.19,0.443-0.332c0.128-0.141,0.229-0.307,0.301-0.495c0.071-0.189,0.107-0.394,0.107-0.613
		c0-0.213-0.036-0.414-0.107-0.604c-0.072-0.189-0.173-0.354-0.301-0.496c-0.128-0.141-0.275-0.252-0.443-0.332
		s-0.349-0.119-0.54-0.119s-0.372,0.041-0.54,0.123c-0.168,0.084-0.314,0.195-0.439,0.336c-0.125,0.143-0.224,0.307-0.296,0.496
		S40.182,66.382,40.182,66.602z"/>
	<path fill="#E8E8E8" d="M48.159,68.673h-0.704v-2.336c0-0.447-0.067-0.772-0.204-0.976c-0.136-0.202-0.343-0.304-0.62-0.304
		c-0.145,0-0.288,0.027-0.432,0.084c-0.145,0.057-0.28,0.132-0.408,0.229c-0.128,0.096-0.24,0.211-0.336,0.344
		c-0.097,0.133-0.168,0.279-0.216,0.439v2.52h-0.704v-4.176h0.64v0.896c0.165-0.293,0.404-0.527,0.717-0.704
		c0.312-0.176,0.651-0.265,1.021-0.265c0.239,0,0.439,0.045,0.601,0.133c0.159,0.088,0.287,0.211,0.384,0.367
		c0.097,0.158,0.164,0.344,0.204,0.557s0.061,0.445,0.061,0.696v2.495H48.159z"/>
	<path fill="#E8E8E8" d="M53.421,68.753c-0.324,0-0.621-0.08-0.888-0.239c-0.267-0.16-0.478-0.368-0.632-0.624v0.783h-0.624v-5.84
		h0.704v2.496c0.176-0.271,0.392-0.49,0.646-0.656c0.256-0.164,0.556-0.248,0.896-0.248c0.287,0,0.546,0.062,0.774,0.185
		c0.229,0.122,0.427,0.284,0.589,0.483c0.162,0.201,0.287,0.433,0.376,0.697c0.088,0.264,0.133,0.535,0.133,0.812
		c0,0.293-0.051,0.569-0.152,0.832c-0.102,0.262-0.24,0.489-0.416,0.685c-0.176,0.194-0.386,0.35-0.628,0.463
		C53.958,68.696,53.698,68.753,53.421,68.753z M53.245,68.146c0.208,0,0.399-0.043,0.576-0.128c0.176-0.085,0.328-0.2,0.456-0.345
		c0.128-0.144,0.227-0.307,0.296-0.491s0.104-0.377,0.104-0.58s-0.032-0.399-0.1-0.588s-0.16-0.356-0.28-0.5
		s-0.264-0.261-0.432-0.349s-0.354-0.131-0.557-0.131c-0.149,0-0.29,0.026-0.425,0.08c-0.133,0.053-0.257,0.123-0.371,0.211
		s-0.217,0.191-0.305,0.309s-0.164,0.242-0.228,0.375v1.209c0.025,0.133,0.084,0.256,0.172,0.367
		c0.088,0.113,0.19,0.209,0.312,0.293c0.121,0.082,0.248,0.147,0.385,0.195C52.985,68.123,53.117,68.146,53.245,68.146z"/>
	<path fill="#E8E8E8" d="M57.333,68.753c-0.196,0-0.381-0.033-0.552-0.1s-0.318-0.158-0.444-0.275
		c-0.125-0.117-0.224-0.256-0.296-0.412c-0.07-0.157-0.106-0.329-0.106-0.516c0-0.193,0.042-0.367,0.128-0.525
		c0.085-0.156,0.206-0.291,0.363-0.403s0.345-0.2,0.561-0.265c0.216-0.063,0.452-0.096,0.708-0.096c0.202,0,0.408,0.02,0.616,0.057
		s0.392,0.088,0.552,0.152v-0.336c0-0.342-0.096-0.609-0.288-0.805c-0.191-0.195-0.464-0.292-0.815-0.292
		c-0.422,0-0.863,0.163-1.327,0.487l-0.232-0.455c0.539-0.362,1.08-0.545,1.624-0.545c0.55,0,0.978,0.148,1.284,0.441
		s0.46,0.707,0.46,1.239v1.704c0,0.165,0.074,0.25,0.224,0.256v0.607c-0.074,0.012-0.136,0.02-0.184,0.025
		c-0.048,0.004-0.1,0.008-0.152,0.008c-0.139,0-0.249-0.043-0.332-0.125c-0.082-0.082-0.132-0.183-0.146-0.299l-0.018-0.297
		c-0.187,0.251-0.423,0.441-0.708,0.572C57.964,68.688,57.658,68.753,57.333,68.753z M57.518,68.226c0.25,0,0.482-0.046,0.699-0.141
		c0.217-0.092,0.381-0.217,0.491-0.371c0.103-0.102,0.152-0.205,0.152-0.312v-0.615c-0.342-0.134-0.696-0.201-1.064-0.201
		c-0.352,0-0.639,0.076-0.858,0.225c-0.223,0.148-0.332,0.344-0.332,0.584c0,0.117,0.021,0.227,0.067,0.328
		c0.045,0.102,0.108,0.189,0.191,0.264c0.083,0.075,0.18,0.133,0.292,0.176C57.27,68.205,57.39,68.226,57.518,68.226z"/>
	<path fill="#E8E8E8" d="M62.157,68.753c-0.336,0-0.667-0.051-0.992-0.155s-0.604-0.255-0.84-0.452l0.304-0.473
		c0.245,0.188,0.49,0.328,0.736,0.42c0.245,0.094,0.504,0.141,0.775,0.141c0.305,0,0.546-0.061,0.725-0.18
		c0.179-0.12,0.268-0.289,0.268-0.508c0-0.103-0.022-0.188-0.071-0.26c-0.048-0.072-0.119-0.135-0.216-0.188
		s-0.22-0.101-0.368-0.144c-0.149-0.043-0.322-0.088-0.521-0.137c-0.251-0.064-0.467-0.125-0.647-0.184
		c-0.182-0.059-0.33-0.129-0.447-0.209c-0.118-0.079-0.203-0.176-0.256-0.287c-0.055-0.112-0.08-0.25-0.08-0.416
		c0-0.208,0.041-0.393,0.124-0.557c0.082-0.162,0.195-0.299,0.34-0.408c0.144-0.108,0.313-0.191,0.508-0.248
		c0.195-0.055,0.404-0.084,0.628-0.084c0.314,0,0.608,0.052,0.88,0.152c0.272,0.103,0.501,0.235,0.688,0.4l-0.32,0.424
		c-0.176-0.154-0.373-0.271-0.592-0.348c-0.219-0.077-0.443-0.116-0.672-0.116c-0.257,0-0.474,0.056-0.652,0.164
		c-0.178,0.108-0.268,0.284-0.268,0.524c0,0.096,0.017,0.176,0.052,0.24c0.034,0.063,0.092,0.119,0.172,0.168
		c0.08,0.047,0.184,0.09,0.309,0.127c0.126,0.039,0.275,0.078,0.451,0.121c0.277,0.063,0.52,0.129,0.726,0.195
		c0.205,0.066,0.376,0.145,0.512,0.236c0.136,0.091,0.237,0.197,0.304,0.32s0.102,0.271,0.102,0.447
		c0,0.389-0.149,0.699-0.448,0.928C63.066,68.639,62.664,68.753,62.157,68.753z"/>
	<path fill="#E8E8E8" d="M66.494,68.753c-0.313,0-0.603-0.058-0.864-0.172c-0.261-0.115-0.484-0.271-0.672-0.467
		c-0.187-0.197-0.332-0.429-0.436-0.693c-0.104-0.264-0.156-0.541-0.156-0.836c0-0.293,0.052-0.57,0.156-0.832
		c0.104-0.26,0.25-0.49,0.438-0.688c0.189-0.197,0.415-0.354,0.677-0.468s0.55-0.173,0.863-0.173c0.314,0,0.603,0.06,0.86,0.177
		c0.259,0.116,0.479,0.272,0.66,0.468c0.181,0.195,0.32,0.422,0.42,0.68c0.099,0.26,0.146,0.526,0.146,0.805
		c0,0.059-0.001,0.111-0.004,0.16c-0.003,0.048-0.007,0.084-0.012,0.111H65.11c0.016,0.209,0.062,0.397,0.144,0.568
		c0.08,0.17,0.186,0.316,0.312,0.439s0.272,0.22,0.436,0.289c0.163,0.068,0.335,0.104,0.518,0.104c0.128,0,0.253-0.018,0.376-0.053
		c0.122-0.034,0.236-0.08,0.344-0.139c0.106-0.06,0.201-0.131,0.284-0.217c0.082-0.085,0.145-0.181,0.188-0.288l0.608,0.169
		c-0.069,0.154-0.164,0.295-0.284,0.424c-0.12,0.127-0.259,0.237-0.416,0.332c-0.157,0.094-0.332,0.166-0.523,0.219
		C66.902,68.727,66.702,68.753,66.494,68.753z M67.926,66.306c-0.016-0.197-0.064-0.381-0.146-0.549
		c-0.083-0.168-0.188-0.311-0.312-0.428s-0.271-0.209-0.436-0.275s-0.342-0.1-0.528-0.1c-0.186,0-0.361,0.033-0.526,0.1
		c-0.166,0.066-0.312,0.16-0.438,0.279c-0.125,0.121-0.227,0.264-0.304,0.429c-0.077,0.166-0.124,0.347-0.141,0.544H67.926z"/>
	<path fill="#E8E8E8" d="M71.093,68.753c-0.287,0-0.555-0.059-0.8-0.176c-0.246-0.117-0.456-0.273-0.632-0.472
		c-0.177-0.196-0.312-0.427-0.412-0.688c-0.099-0.26-0.147-0.535-0.147-0.824c0-0.293,0.047-0.571,0.14-0.836
		c0.094-0.264,0.225-0.494,0.393-0.691s0.368-0.354,0.601-0.468c0.231-0.114,0.487-0.173,0.765-0.173
		c0.336,0,0.636,0.089,0.899,0.265c0.265,0.177,0.474,0.39,0.628,0.64v-2.496h0.704v4.977c0,0.165,0.075,0.25,0.225,0.256v0.607
		c-0.075,0.012-0.135,0.02-0.181,0.025c-0.045,0.004-0.089,0.008-0.132,0.008c-0.14,0-0.261-0.047-0.364-0.141
		c-0.104-0.093-0.155-0.201-0.155-0.324V67.89c-0.166,0.271-0.386,0.484-0.66,0.636C71.686,68.678,71.396,68.753,71.093,68.753z
		 M71.261,68.146c0.128,0,0.26-0.023,0.396-0.072c0.137-0.048,0.265-0.115,0.385-0.199c0.12-0.086,0.225-0.187,0.312-0.301
		c0.088-0.113,0.146-0.236,0.172-0.363v-1.201c-0.048-0.133-0.12-0.26-0.216-0.379c-0.097-0.121-0.204-0.225-0.324-0.312
		s-0.248-0.156-0.384-0.208c-0.137-0.051-0.271-0.075-0.404-0.075c-0.208,0-0.396,0.043-0.563,0.131
		c-0.168,0.088-0.312,0.205-0.432,0.353c-0.12,0.146-0.213,0.313-0.276,0.504c-0.063,0.188-0.096,0.384-0.096,0.58
		c0,0.208,0.037,0.407,0.111,0.597c0.075,0.188,0.176,0.354,0.305,0.491c0.128,0.14,0.278,0.249,0.451,0.332
		C70.87,68.104,71.058,68.146,71.261,68.146z"/>
	<path fill="#E8E8E8" d="M8.153,78.274H7.449v-2.336c0-0.438-0.071-0.76-0.212-0.968c-0.142-0.208-0.351-0.312-0.628-0.312
		c-0.288,0-0.546,0.104-0.772,0.309s-0.388,0.471-0.482,0.796v2.512H4.649v-2.336c0-0.448-0.069-0.772-0.208-0.976
		c-0.14-0.203-0.348-0.305-0.624-0.305c-0.283,0-0.539,0.1-0.77,0.301c-0.229,0.199-0.392,0.465-0.486,0.795v2.521H1.857v-4.176
		h0.64v0.896c0.171-0.31,0.393-0.548,0.664-0.716s0.578-0.252,0.92-0.252c0.353,0,0.631,0.095,0.836,0.284s0.332,0.434,0.38,0.732
		c0.373-0.678,0.904-1.017,1.593-1.017c0.239,0,0.44,0.044,0.604,0.132c0.162,0.088,0.292,0.211,0.388,0.368
		c0.098,0.157,0.165,0.343,0.208,0.556s0.064,0.445,0.064,0.696V78.274z"/>
	<path fill="#E8E8E8" d="M10.537,78.354c-0.438,0-0.769-0.146-0.992-0.44c-0.225-0.293-0.336-0.73-0.336-1.312v-2.504h0.704v2.368
		c0,0.854,0.296,1.279,0.888,1.279c0.288,0,0.56-0.092,0.812-0.275c0.254-0.184,0.441-0.436,0.563-0.756v-2.616h0.704v3.312
		c0,0.166,0.074,0.25,0.225,0.256v0.608c-0.08,0.011-0.144,0.017-0.188,0.021c-0.046,0.002-0.09,0.004-0.133,0.004
		c-0.139,0-0.254-0.041-0.348-0.125c-0.094-0.082-0.144-0.184-0.147-0.307l-0.017-0.488c-0.188,0.314-0.433,0.556-0.735,0.724
		C11.232,78.27,10.899,78.354,10.537,78.354z"/>
	<path fill="#E8E8E8" d="M15.521,78.354c-0.336,0-0.667-0.052-0.992-0.155c-0.325-0.105-0.605-0.255-0.84-0.453l0.304-0.472
		c0.245,0.187,0.49,0.327,0.736,0.42c0.245,0.093,0.504,0.14,0.774,0.14c0.306,0,0.546-0.06,0.726-0.18
		c0.179-0.119,0.268-0.289,0.268-0.508c0-0.102-0.022-0.188-0.072-0.26c-0.048-0.072-0.118-0.135-0.216-0.188
		c-0.096-0.054-0.219-0.102-0.368-0.145c-0.148-0.042-0.321-0.088-0.52-0.137c-0.251-0.063-0.467-0.125-0.648-0.184
		c-0.181-0.059-0.33-0.128-0.446-0.208c-0.118-0.08-0.203-0.176-0.256-0.288c-0.055-0.111-0.08-0.25-0.08-0.416
		c0-0.208,0.041-0.393,0.124-0.556c0.082-0.163,0.194-0.3,0.34-0.408c0.144-0.108,0.312-0.192,0.508-0.248s0.404-0.084,0.628-0.084
		c0.314,0,0.608,0.052,0.88,0.151c0.272,0.103,0.501,0.236,0.688,0.4l-0.32,0.424c-0.176-0.154-0.373-0.271-0.592-0.348
		c-0.22-0.076-0.443-0.115-0.672-0.115c-0.258,0-0.475,0.055-0.652,0.164c-0.178,0.108-0.268,0.283-0.268,0.523
		c0,0.096,0.017,0.176,0.052,0.24c0.034,0.063,0.092,0.119,0.172,0.168c0.08,0.048,0.183,0.091,0.308,0.128
		c0.126,0.038,0.276,0.077,0.452,0.12c0.277,0.063,0.52,0.129,0.726,0.195c0.204,0.066,0.376,0.146,0.512,0.236
		s0.237,0.197,0.304,0.32s0.102,0.271,0.102,0.447c0,0.39-0.149,0.699-0.448,0.928C16.43,78.24,16.027,78.354,15.521,78.354z"/>
	<path fill="#E8E8E8" d="M18.009,73.314v-0.88h0.704v0.88H18.009z M18.009,78.274v-4.176h0.704v4.176H18.009z"/>
	<path fill="#E8E8E8" d="M19.568,76.178c0-0.294,0.051-0.57,0.152-0.832c0.101-0.261,0.244-0.489,0.432-0.685
		c0.187-0.195,0.409-0.35,0.668-0.463c0.259-0.115,0.548-0.173,0.868-0.173c0.416,0,0.773,0.093,1.076,0.276
		c0.301,0.184,0.528,0.431,0.684,0.74l-0.688,0.215c-0.106-0.196-0.257-0.35-0.447-0.459c-0.192-0.109-0.405-0.164-0.642-0.164
		c-0.19,0-0.373,0.039-0.544,0.115c-0.17,0.078-0.316,0.186-0.438,0.324c-0.123,0.139-0.221,0.303-0.292,0.488
		c-0.072,0.186-0.108,0.393-0.108,0.616c0,0.219,0.037,0.424,0.112,0.616c0.074,0.191,0.175,0.358,0.3,0.5
		c0.125,0.141,0.272,0.252,0.44,0.332s0.348,0.119,0.54,0.119c0.121,0,0.242-0.018,0.362-0.052s0.229-0.081,0.328-0.14
		c0.1-0.059,0.187-0.126,0.26-0.204c0.075-0.078,0.129-0.162,0.16-0.252l0.688,0.208c-0.064,0.154-0.153,0.296-0.27,0.424
		c-0.113,0.128-0.249,0.236-0.402,0.328c-0.155,0.09-0.327,0.163-0.518,0.216c-0.189,0.054-0.388,0.08-0.596,0.08
		c-0.314,0-0.604-0.06-0.864-0.176c-0.261-0.117-0.484-0.274-0.672-0.472c-0.187-0.199-0.332-0.429-0.436-0.692
		C19.62,76.75,19.568,76.471,19.568,76.178z"/>
	<path fill="#E8E8E8" d="M27.376,78.354c-0.196,0-0.381-0.034-0.552-0.101c-0.171-0.065-0.318-0.158-0.444-0.275
		c-0.125-0.117-0.224-0.255-0.296-0.412c-0.07-0.156-0.106-0.329-0.106-0.516c0-0.192,0.042-0.367,0.128-0.524
		c0.085-0.157,0.206-0.292,0.363-0.403c0.157-0.113,0.345-0.201,0.561-0.265s0.452-0.096,0.708-0.096
		c0.202,0,0.408,0.019,0.616,0.056c0.208,0.038,0.392,0.088,0.552,0.152v-0.336c0-0.342-0.096-0.609-0.288-0.805
		c-0.191-0.195-0.464-0.291-0.815-0.291c-0.422,0-0.863,0.162-1.327,0.487L26.24,74.57c0.539-0.361,1.08-0.544,1.624-0.544
		c0.55,0,0.978,0.147,1.284,0.44s0.46,0.707,0.46,1.24v1.703c0,0.166,0.074,0.25,0.224,0.256v0.608
		c-0.074,0.011-0.136,0.019-0.184,0.024c-0.048,0.005-0.1,0.008-0.152,0.008c-0.139,0-0.249-0.042-0.332-0.124
		c-0.082-0.083-0.132-0.183-0.146-0.3L29,77.585c-0.187,0.252-0.423,0.441-0.708,0.572S27.701,78.354,27.376,78.354z M27.561,77.826
		c0.25,0,0.482-0.046,0.7-0.14c0.216-0.093,0.38-0.218,0.49-0.372c0.103-0.102,0.152-0.205,0.152-0.312v-0.615
		c-0.342-0.133-0.696-0.2-1.064-0.2c-0.352,0-0.639,0.075-0.858,0.224c-0.223,0.149-0.332,0.344-0.332,0.584
		c0,0.117,0.021,0.228,0.067,0.328c0.046,0.102,0.108,0.189,0.191,0.264c0.083,0.076,0.18,0.133,0.292,0.177
		C27.312,77.805,27.433,77.826,27.561,77.826z"/>
	<path fill="#E8E8E8" d="M32.984,78.354c-0.347,0-0.652-0.085-0.916-0.256c-0.265-0.171-0.475-0.388-0.628-0.647v2.527h-0.704v-5.88
		h0.624v0.784c0.165-0.256,0.38-0.463,0.644-0.62c0.265-0.157,0.557-0.236,0.876-0.236c0.288,0,0.553,0.06,0.792,0.177
		c0.24,0.116,0.448,0.275,0.624,0.475c0.177,0.201,0.313,0.432,0.412,0.693c0.1,0.26,0.148,0.532,0.148,0.815
		c0,0.299-0.046,0.58-0.138,0.844c-0.091,0.265-0.219,0.494-0.384,0.688c-0.165,0.195-0.361,0.35-0.592,0.464
		C33.515,78.296,33.261,78.354,32.984,78.354z M32.768,77.746c0.208,0,0.396-0.043,0.563-0.131c0.168-0.089,0.312-0.205,0.433-0.353
		c0.119-0.146,0.212-0.313,0.275-0.5s0.097-0.378,0.097-0.576c0-0.208-0.037-0.407-0.111-0.597
		c-0.075-0.188-0.177-0.354-0.305-0.496c-0.129-0.141-0.278-0.252-0.452-0.336c-0.173-0.082-0.361-0.123-0.563-0.123
		c-0.128,0-0.26,0.025-0.396,0.076c-0.137,0.051-0.265,0.117-0.385,0.199c-0.119,0.084-0.224,0.182-0.312,0.297
		c-0.088,0.114-0.146,0.235-0.172,0.363v1.192c0.059,0.139,0.133,0.268,0.224,0.388s0.194,0.225,0.312,0.312
		s0.243,0.156,0.376,0.207C32.485,77.721,32.624,77.746,32.768,77.746z"/>
	<path fill="#E8E8E8" d="M37.969,78.354c-0.347,0-0.651-0.085-0.915-0.256c-0.266-0.171-0.475-0.388-0.629-0.647v2.527h-0.703v-5.88
		h0.624v0.784c0.164-0.256,0.38-0.463,0.644-0.62s0.556-0.236,0.876-0.236c0.288,0,0.552,0.06,0.792,0.177
		c0.24,0.116,0.448,0.275,0.624,0.475c0.176,0.201,0.313,0.432,0.412,0.693c0.099,0.26,0.147,0.532,0.147,0.815
		c0,0.299-0.046,0.58-0.137,0.844c-0.091,0.265-0.219,0.494-0.384,0.688c-0.165,0.195-0.362,0.35-0.592,0.464
		S38.245,78.354,37.969,78.354z M37.752,77.746c0.208,0,0.396-0.043,0.564-0.131c0.168-0.089,0.312-0.205,0.432-0.353
		c0.12-0.146,0.212-0.313,0.276-0.5c0.062-0.187,0.096-0.378,0.096-0.576c0-0.208-0.037-0.407-0.111-0.597
		c-0.074-0.188-0.177-0.354-0.305-0.496c-0.128-0.141-0.278-0.252-0.452-0.336c-0.173-0.082-0.36-0.123-0.562-0.123
		c-0.128,0-0.26,0.025-0.396,0.076c-0.136,0.051-0.264,0.117-0.384,0.199c-0.12,0.084-0.224,0.182-0.312,0.297
		c-0.089,0.114-0.146,0.235-0.173,0.363v1.192c0.06,0.139,0.134,0.268,0.225,0.388s0.193,0.225,0.312,0.312s0.243,0.156,0.376,0.207
		C37.47,77.721,37.608,77.746,37.752,77.746z"/>
</g>
<g>
	<path fill="#FFFFFF" d="M10.773,55.82v2.736H1.292v-13.49h9.311v2.736H4.408v2.621h5.319v2.527H4.408v2.869H10.773z"/>
	<path fill="#FFFFFF" d="M12.065,54.699v-2.736h5.852v2.736H12.065z"/>
	<path fill="#FFFFFF" d="M30.874,58.556v-8.075l-2.926,5.871h-1.672l-2.926-5.871v8.075h-3.116v-13.49h3.382l3.496,7.049
		l3.515-7.049h3.363v13.49H30.874z"/>
	<path fill="#FFFFFF" d="M42.369,55.896c0.532,0,0.981-0.109,1.349-0.333c0.368-0.222,0.665-0.517,0.895-0.883
		c0.228-0.367,0.39-0.789,0.484-1.265c0.095-0.475,0.143-0.959,0.143-1.453v-6.896h3.116v6.896c0,0.938-0.117,1.812-0.353,2.623
		c-0.233,0.811-0.596,1.52-1.083,2.127c-0.487,0.608-1.107,1.086-1.861,1.435s-1.65,0.522-2.688,0.522
		c-1.077,0-1.995-0.184-2.755-0.551s-1.378-0.859-1.853-1.474c-0.476-0.614-0.823-1.327-1.046-2.138
		c-0.222-0.809-0.333-1.658-0.333-2.545v-6.897H39.5v6.897c0,0.52,0.051,1.013,0.152,1.481c0.101,0.47,0.266,0.888,0.494,1.255
		c0.228,0.367,0.521,0.658,0.883,0.873C41.391,55.789,41.837,55.896,42.369,55.896z"/>
</g>
</svg>
